<?xml version="1.0" encoding="UTF-8" standalone="no"?>
<svg width="22px" height="17px" viewBox="0 0 22 17" version="1.1" xmlns="http://www.w3.org/2000/svg" xmlns:xlink="http://www.w3.org/1999/xlink">
    <!-- Generator: Sketch 41.2 (35397) - http://www.bohemiancoding.com/sketch -->
    <title>envelope-o - FontAwesome</title>
    <desc>Created with Sketch.</desc>
    <defs></defs>
    <g id="Page-1" stroke="none" stroke-width="1" fill="none" fill-rule="evenodd">
        <g id="landing-page" transform="translate(-503.000000, -1361.000000)" fill="#000000">
            <path d="M523.061052,1375.91882 C523.061052,1376.11718 522.886032,1376.2922 522.687675,1376.2922 L505.512349,1376.2922 C505.313992,1376.2922 505.138972,1376.11718 505.138972,1375.91882 L505.138972,1366.95778 C505.384,1367.23782 505.652365,1367.49451 505.944065,1367.72787 C507.612592,1369.01136 509.292787,1370.31817 510.914642,1371.67166 C511.789744,1372.40675 512.87487,1373.30519 514.088344,1373.30519 L514.11168,1373.30519 C515.325154,1373.30519 516.41028,1372.40675 517.285382,1371.67166 C518.907236,1370.31817 520.587431,1369.01136 522.255958,1367.72787 C522.547659,1367.49451 522.816023,1367.23782 523.061052,1366.95778 L523.061052,1375.91882 Z M523.061052,1363.65573 C523.061052,1364.64752 522.104274,1365.94267 521.345853,1366.53774 C519.782338,1367.76288 518.218823,1368.99969 516.666976,1370.2365 C516.048571,1370.73822 514.928441,1371.81168 514.11168,1371.81168 L514.088344,1371.81168 C513.271582,1371.81168 512.151452,1370.73822 511.533047,1370.2365 C509.981201,1368.99969 508.417686,1367.76288 506.854171,1366.53774 C505.804049,1365.70931 505.138972,1364.55417 505.138972,1363.22402 C505.138972,1363.02566 505.313992,1362.85064 505.512349,1362.85064 L522.687675,1362.85064 C523.13106,1362.85064 523.061052,1363.36403 523.061052,1363.65573 Z M524.554558,1363.22402 C524.554558,1362.19723 523.714461,1361.35713 522.687675,1361.35713 L505.512349,1361.35713 C504.485563,1361.35713 503.645465,1362.19723 503.645465,1363.22402 L503.645465,1375.91882 C503.645465,1376.94561 504.485563,1377.78571 505.512349,1377.78571 L522.687675,1377.78571 C523.714461,1377.78571 524.554558,1376.94561 524.554558,1375.91882 L524.554558,1363.22402 Z" id="envelope-o---FontAwesome"></path>
        </g>
    </g>
</svg>