<?xml version="1.0" encoding="UTF-8" standalone="no"?>
<svg width="56px" height="56px" viewBox="0 0 56 56" version="1.1" xmlns="http://www.w3.org/2000/svg" xmlns:xlink="http://www.w3.org/1999/xlink">
    <!-- Generator: Sketch 41.2 (35397) - http://www.bohemiancoding.com/sketch -->
    <title>googleplus-icon</title>
    <desc>Created with Sketch.</desc>
    <defs></defs>
    <g id="Page-1" stroke="none" stroke-width="1" fill="none" fill-rule="evenodd">
        <g id="googleplus-icon" transform="translate(1.000000, 1.000000)">
            <g id="Page-1">
                <g id="contact-section">
                    <g id="Group">
                        <circle id="Oval" stroke="#D0011B" stroke-width="2" cx="27" cy="27" r="27"></circle>
                        <path d="M32.0379655,28.0468667 C32.0379655,27.5111518 31.9821619,27.0982049 31.9040368,26.6852579 L24.1808133,26.6852579 L24.1808133,29.4977613 L28.823676,29.4977613 C28.6339436,30.6919592 27.4174243,33.0245512 24.1808133,33.0245512 C21.3906314,33.0245512 19.113843,30.7142806 19.113843,27.8571343 C19.113843,24.9999881 21.3906314,22.6897175 24.1808133,22.6897175 C25.7767974,22.6897175 26.8370665,23.3705219 27.4397458,23.9508797 L29.6607306,21.8191807 C28.2321574,20.4798934 26.3906374,19.676321 24.1808133,19.676321 C19.6607186,19.676321 16,23.3370397 16,27.8571343 C16,32.377229 19.6607186,36.0379477 24.1808133,36.0379477 C28.9018011,36.0379477 32.0379655,32.7232116 32.0379655,28.0468667 Z M41.7143164,26.6852579 L39.3817243,26.6852579 L39.3817243,24.3526659 L37.0379715,24.3526659 L37.0379715,26.6852579 L34.7053794,26.6852579 L34.7053794,29.0290107 L37.0379715,29.0290107 L37.0379715,31.3616028 L39.3817243,31.3616028 L39.3817243,29.0290107 L41.7143164,29.0290107 L41.7143164,26.6852579 Z" id="google-plus---FontAwesome" fill="#FFFFFF"></path>
                    </g>
                </g>
            </g>
        </g>
    </g>
</svg>