<?xml version="1.0" encoding="UTF-8"?>
<svg width="141px" height="188px" viewBox="0 0 141 188" version="1.1" xmlns="http://www.w3.org/2000/svg" xmlns:xlink="http://www.w3.org/1999/xlink">
    <!-- Generator: Sketch 47.1 (45422) - http://www.bohemiancoding.com/sketch -->
    <title>graphic-design-icon</title>
    <desc>Created with Sketch.</desc>
    <defs></defs>
    <g id="Page-1" stroke="none" stroke-width="1" fill="none" fill-rule="evenodd">
        <g id="process-icons" transform="translate(-1340.000000, -157.000000)">
            <g id="graphic-design-icon" transform="translate(1339.000000, 156.000000)">
                <g transform="translate(1.181818, 0.000000)">
                    <path d="M18.2022393,183.683409 C18.1938451,183.678212 18.1768969,183.66687 18.1509747,183.649952 L18.2022393,183.683409 Z M80.0568182,104.123177 C85.4051556,107.443476 88.7727273,113.313706 88.7727273,119.782609 C88.7727273,129.962946 80.5095437,138.214286 70.3181818,138.214286 C60.1268199,138.214286 51.8636364,129.962946 51.8636364,119.782609 C51.8636364,113.313707 55.2312072,107.443477 60.5795455,104.123172 L60.5795455,10.8465033 L6.02232161,107.595067 C5.93394919,107.745874 5.75233231,108.085475 5.50791237,108.59575 C5.08687013,109.474759 4.66272932,110.489581 4.26549345,111.621738 C3.8917947,112.686812 3.5620407,113.800784 3.28856426,114.955782 C2.28394698,119.198675 2.28681162,119.422863 3.29768409,124.027763 L14.5426965,175.252974 C14.9744057,177.21957 15.4961831,178.879749 16.0832269,180.258916 C16.648444,181.586804 17.2293748,182.557342 17.778934,183.226818 C17.944155,183.428091 18.0842126,183.574337 18.1939514,183.672556 C18.2097974,183.686738 18.2128422,183.689975 18.2022393,183.683409 L18.3201311,183.76035 L18.4693693,183.896473 C18.6759941,184.08494 19.326862,184.501111 20.4872283,184.965419 C22.612977,185.816012 25.3887541,186.336244 28.892149,186.329399 L110.576262,186.169805 C116.255272,186.15871 118.488129,185.255373 122.373139,182.132006 C123.118532,181.532746 123.853433,180.374039 124.480935,178.822164 C124.897905,177.790957 125.238805,176.664758 125.50405,175.53573 C125.597245,175.139041 125.673899,174.772045 125.734783,174.445638 C125.769844,174.257668 125.791027,174.130949 125.799255,174.07618 L125.82851,173.91679 L136.867399,123.110394 C136.882309,123.0352 136.911698,122.876689 136.950792,122.647571 C137.017527,122.256455 137.084601,121.81947 137.147282,121.349605 C137.313881,120.100745 137.418006,118.860573 137.429888,117.725564 C137.437065,117.040054 137.409763,116.417012 137.346514,115.873861 C137.161358,114.28384 136.723843,112.692663 136.109328,111.16547 C135.81345,110.430152 135.496996,109.760783 135.18317,109.174378 C135.002361,108.836525 134.869843,108.612253 134.809283,108.517764 L134.732786,108.390212 L80.0568182,10.7495446 L80.0568182,104.123177 Z" id="Combined-Shape" stroke="#B6B6B6" stroke-width="5"></path>
                    <ellipse id="Oval-6" fill="#268CC2" cx="70.3181818" cy="119.782609" rx="11.9659091" ry="11.9487578"></ellipse>
                    <rect id="Rectangle-11" fill="#268CC2" x="67.6590909" y="1.16820533" width="5.31818182" height="109.763472"></rect>
                </g>
            </g>
        </g>
    </g>
</svg>