<?xml version="1.0" encoding="UTF-8" standalone="no"?>
<svg width="56px" height="56px" viewBox="0 0 56 56" version="1.1" xmlns="http://www.w3.org/2000/svg" xmlns:xlink="http://www.w3.org/1999/xlink">
    <!-- Generator: Sketch 41.2 (35397) - http://www.bohemiancoding.com/sketch -->
    <title>Group 2</title>
    <desc>Created with Sketch.</desc>
    <defs></defs>
    <g id="Page-1" stroke="none" stroke-width="1" fill="none" fill-rule="evenodd">
        <g id="contact-section" transform="translate(-953.000000, -373.000000)">
            <g id="Group-2" transform="translate(954.000000, 374.000000)">
                <circle id="Oval" stroke="#9D5AD7" stroke-width="2" cx="27" cy="27" r="27"></circle>
                <path d="M31.2857313,27.0714179 C31.2857313,29.0384962 29.6813767,30.6428508 27.7142985,30.6428508 C25.7472202,30.6428508 24.1428657,29.0384962 24.1428657,27.0714179 C24.1428657,25.1043397 25.7472202,23.4999851 27.7142985,23.4999851 C29.6813767,23.4999851 31.2857313,25.1043397 31.2857313,27.0714179 Z M33.2109568,27.0714179 C33.2109568,24.0301197 30.7555968,21.5747596 27.7142985,21.5747596 C24.6730002,21.5747596 22.2176401,24.0301197 22.2176401,27.0714179 C22.2176401,30.1127162 24.6730002,32.5680763 27.7142985,32.5680763 C30.7555968,32.5680763 33.2109568,30.1127162 33.2109568,27.0714179 Z M34.717655,21.351545 C34.717655,20.6400487 34.1456678,20.0680614 33.4341714,20.0680614 C32.722675,20.0680614 32.1506877,20.6400487 32.1506877,21.351545 C32.1506877,22.0630414 32.722675,22.6350287 33.4341714,22.6350287 C34.1456678,22.6350287 34.717655,22.0630414 34.717655,21.351545 Z M27.7142985,18.282345 C29.2768003,18.282345 32.6250186,18.1567868 34.0340605,18.7148231 C34.5223423,18.9101359 34.885066,19.1473013 35.2617405,19.5239759 C35.6384151,19.9006505 35.8755805,20.2633741 36.0708933,20.7516559 C36.6289296,22.1606978 36.5033715,25.5089161 36.5033715,27.0714179 C36.5033715,28.6339198 36.6289296,31.9821381 36.0708933,33.3911799 C35.8755805,33.8794618 35.6384151,34.2421854 35.2617405,34.61886 C34.885066,34.9955345 34.5223423,35.2327 34.0340605,35.4280127 C32.6250186,35.9860491 29.2768003,35.8604909 27.7142985,35.8604909 C26.1517966,35.8604909 22.8035783,35.9860491 21.3945365,35.4280127 C20.9062547,35.2327 20.543531,34.9955345 20.1668565,34.61886 C19.7901819,34.2421854 19.5530164,33.8794618 19.3577037,33.3911799 C18.7996673,31.9821381 18.9252255,28.6339198 18.9252255,27.0714179 C18.9252255,25.5089161 18.7996673,22.1606978 19.3577037,20.7516559 C19.5530164,20.2633741 19.7901819,19.9006505 20.1668565,19.5239759 C20.543531,19.1473013 20.9062547,18.9101359 21.3945365,18.7148231 C22.8035783,18.1567868 26.1517966,18.282345 27.7142985,18.282345 Z M38.428597,27.0714179 C38.428597,25.5926215 38.4425479,24.127776 38.3588424,22.6489796 C38.275137,20.9330178 37.8845115,19.4123686 36.6289296,18.1567868 C35.3733478,16.9012049 33.8526987,16.5105794 32.1367368,16.426874 C30.6579404,16.3431685 29.1930949,16.3571194 27.7142985,16.3571194 C26.2355021,16.3571194 24.7706566,16.3431685 23.2918602,16.426874 C21.5758983,16.5105794 20.0552492,16.9012049 18.7996673,18.1567868 C17.5440855,19.4123686 17.15346,20.9330178 17.0697545,22.6489796 C16.9860491,24.127776 17,25.5926215 17,27.0714179 C17,28.5502143 16.9860491,30.0150598 17.0697545,31.4938562 C17.15346,33.2098181 17.5440855,34.7304672 18.7996673,35.9860491 C20.0552492,37.2416309 21.5758983,37.6322564 23.2918602,37.7159619 C24.7706566,37.7996673 26.2355021,37.7857164 27.7142985,37.7857164 C29.1930949,37.7857164 30.6579404,37.7996673 32.1367368,37.7159619 C33.8526987,37.6322564 35.3733478,37.2416309 36.6289296,35.9860491 C37.8845115,34.7304672 38.275137,33.2098181 38.3588424,31.4938562 C38.4425479,30.0150598 38.428597,28.5502143 38.428597,27.0714179 Z" id="instagram---FontAwesome" fill="#5F5F5F"></path>
            </g>
        </g>
    </g>
</svg>