<?xml version="1.0" encoding="UTF-8" standalone="no"?>
<svg width="56px" height="56px" viewBox="0 0 56 56" version="1.1" xmlns="http://www.w3.org/2000/svg" xmlns:xlink="http://www.w3.org/1999/xlink">
    <!-- Generator: Sketch 41.2 (35397) - http://www.bohemiancoding.com/sketch -->
    <title>linkedin-icon</title>
    <desc>Created with Sketch.</desc>
    <defs></defs>
    <g id="Page-1" stroke="none" stroke-width="1" fill="none" fill-rule="evenodd">
        <g id="linkedin-icon" transform="translate(1.000000, 1.000000)">
            <g id="Page-1">
                <g id="contact-section">
                    <g id="Group-4">
                        <circle id="Oval" stroke="#259682" stroke-width="2" cx="27" cy="27" r="27"></circle>
                        <path d="M22.2846033,23.8158349 L18.2332592,23.8158349 L18.2332592,35.982144 L22.2846033,35.982144 L22.2846033,23.8158349 Z M22.5424161,20.059134 C22.5301393,18.8682843 21.6707633,17.9598011 20.2834849,17.9598011 C18.9084832,17.9598011 18,18.8682843 18,20.059134 C18,21.22543 18.8716528,22.1584668 20.2343777,22.1584668 L20.2589313,22.1584668 C21.6707633,22.1584668 22.5546929,21.22543 22.5424161,20.059134 Z M28.5580483,25.5450857 L28.5580483,23.8158349 L24.518981,23.8158349 C24.518981,23.8158349 24.5680882,24.9575773 24.518981,35.982144 L28.5580483,35.982144 L28.5580483,29.1930734 C28.5580483,28.8247694 28.5948787,28.4687422 28.6930931,28.1986526 C28.9877363,27.4743214 29.6506835,26.7254366 30.7678724,26.7254366 C32.2288116,26.7254366 32.818098,27.8426254 32.818098,29.4754398 L32.818098,35.982144 L36.8571653,35.982144 L36.8571653,29.0089214 C36.8571653,25.2767741 34.8683237,23.5334685 32.204258,23.5334685 C30.0524468,23.5334685 29.0910087,24.711938 28.5580483,25.5450857 L28.5580483,25.5450857 Z" id="linkedin---FontAwesome" fill="#FFFFFF"></path>
                    </g>
                </g>
            </g>
        </g>
    </g>
</svg>