<?xml version="1.0" encoding="UTF-8" standalone="no"?>
<svg width="56px" height="56px" viewBox="0 0 56 56" version="1.1" xmlns="http://www.w3.org/2000/svg" xmlns:xlink="http://www.w3.org/1999/xlink">
    <!-- Generator: Sketch 41.2 (35397) - http://www.bohemiancoding.com/sketch -->
    <title>Group 3</title>
    <desc>Created with Sketch.</desc>
    <defs></defs>
    <g id="Page-1" stroke="none" stroke-width="1" fill="none" fill-rule="evenodd">
        <g id="contact-section" transform="translate(-953.000000, -299.000000)">
            <g id="Group-3" transform="translate(954.000000, 300.000000)">
                <circle id="Oval" stroke="#E75062" stroke-width="2" cx="27" cy="27" r="27"></circle>
                <path d="M19,24.900096 C19,26.7276651 19.7254473,29.3922888 21.7204274,29.992178 C21.7901819,30.0061289 21.8878383,30.0340307 21.9575928,30.0340307 C22.4179728,30.0340307 22.6830401,28.750547 22.6830401,28.3878234 C22.6830401,27.9553452 21.5809183,27.0345851 21.5809183,25.2349178 C21.5809183,21.4960741 24.4269038,18.8454013 28.1099439,18.8454013 C31.2768003,18.8454013 33.6205531,20.6450686 33.6205531,23.9514341 C33.6205531,26.4207451 32.6300386,31.0524471 29.4213294,31.0524471 C28.2634039,31.0524471 27.2728893,30.2153925 27.2728893,29.0156143 C27.2728893,27.2577997 28.5005694,25.5557887 28.5005694,23.7421705 C28.5005694,22.6400487 27.8727784,21.7471904 26.700902,21.7471904 C25.1104984,21.7471904 24.1339347,23.5329069 24.1339347,24.9419487 C24.1339347,25.7231997 24.2315911,26.588156 24.5803638,27.2996524 C23.938622,30.0619325 22.6272365,34.1774508 22.6272365,37.0234363 C22.6272365,37.9023436 22.7527947,38.7673 22.8365001,39.6462073 L22.9620583,39.7857164 L23.157371,39.7159619 C25.5011238,36.5072527 25.4174184,35.8794618 26.4776875,31.680238 C27.0496748,32.7684089 28.5284712,33.3543471 29.7003476,33.3543471 C34.6389695,33.3543471 36.8571641,28.5412834 36.8571641,24.2025505 C36.8571641,19.5847995 32.867204,16.571403 28.4866185,16.571403 C23.7154074,16.571403 19,19.7522104 19,24.900096 Z" id="pinterest-p---FontAwesome" fill="#5F5F5F"></path>
            </g>
        </g>
    </g>
</svg>