<?xml version="1.0" encoding="UTF-8" standalone="no"?>
<svg width="18px" height="17px" viewBox="0 0 18 17" version="1.1" xmlns="http://www.w3.org/2000/svg" xmlns:xlink="http://www.w3.org/1999/xlink">
    <!-- Generator: Sketch 41.2 (35397) - http://www.bohemiancoding.com/sketch -->
    <title>undefined - FontAwesome</title>
    <desc>Created with Sketch.</desc>
    <defs></defs>
    <g id="Page-1" stroke="none" stroke-width="1" fill="none" fill-rule="evenodd">
        <g id="landing-page" transform="translate(-526.000000, -1361.000000)" fill="#000000">
            <path d="M542.383948,1364.57384 L538.901801,1361.63953 C538.488854,1361.29155 537.66296,1361 537.071442,1361 L527.07143,1361 C526.479911,1361 526,1361.40441 526,1361.90286 L526,1376.9506 C526,1377.44906 526.479911,1377.85346 527.07143,1377.85346 L542.071448,1377.85346 C542.662966,1377.85346 543.142878,1377.44906 543.142878,1376.9506 L543.142878,1366.11623 C543.142878,1365.61777 542.796895,1364.92182 542.383948,1364.57384 Z M537.428585,1362.51786 C537.618317,1362.57343 537.80805,1362.65677 537.886175,1362.7216 L541.379483,1365.6203 C541.457608,1365.68513 541.558054,1365.84256 541.625019,1366 L537.428585,1366 L537.428585,1362.51786 Z M541.714304,1376 L527.428573,1376 L527.428573,1362.26718 L536.000012,1362.26718 L536.000012,1365.98648 C536.000012,1366.46034 536.479923,1366.84479 537.071442,1366.84479 L541.714304,1366.84479 L541.714304,1376 Z" id="undefined---FontAwesome"></path>
        </g>
    </g>
</svg>