<?xml version="1.0" encoding="UTF-8" standalone="no"?>
<svg width="56px" height="56px" viewBox="0 0 56 56" version="1.1" xmlns="http://www.w3.org/2000/svg" xmlns:xlink="http://www.w3.org/1999/xlink">
    <!-- Generator: Sketch 41.2 (35397) - http://www.bohemiancoding.com/sketch -->
    <title>Group 5</title>
    <desc>Created with Sketch.</desc>
    <defs></defs>
    <g id="Page-1" stroke="none" stroke-width="1" fill="none" fill-rule="evenodd">
        <g id="contact-section" transform="translate(-953.000000, -151.000000)">
            <g id="Group-5" transform="translate(954.000000, 152.000000)">
                <circle id="Oval" stroke="#4990E2" stroke-width="2" cx="27" cy="27" r="27"></circle>
                <path d="M37.8884166,21.1517692 C37.1763621,21.4586892 36.4029237,21.6796716 35.6049317,21.7656092 C36.4274773,21.2745372 37.0535941,20.5010988 37.3482374,19.5803388 C36.5870757,20.0345804 35.7276997,20.366054 34.8314933,20.5379292 C34.1071621,19.7644908 33.0759108,19.2856956 31.9341684,19.2856956 C29.7366211,19.2856956 27.9687619,21.0658316 27.9687619,23.2511021 C27.9687619,23.5580221 28.0055923,23.8649421 28.0669763,24.1595853 C24.7767938,23.9877101 21.8426385,22.4162796 19.8906273,20.0100268 C19.5468768,20.5993132 19.350448,21.2745372 19.350448,22.0111452 C19.350448,23.3861469 20.0502257,24.6015501 21.1183073,25.3136045 C20.4676369,25.2890509 19.8537969,25.1048989 19.3258944,24.8102557 L19.3258944,24.8593629 C19.3258944,26.7868206 20.6886193,28.3828046 22.5055857,28.7511086 C22.1741121,28.8370462 21.8180849,28.8861534 21.4620577,28.8861534 C21.2042449,28.8861534 20.9587089,28.8615998 20.7131729,28.8247694 C21.2165217,30.3961999 22.6774609,31.5379423 24.4207666,31.5747727 C23.0580417,32.6428543 21.3515665,33.2689712 19.4977696,33.2689712 C19.166296,33.2689712 18.859376,33.2566944 18.5401792,33.2198639 C20.2957617,34.3493296 22.3828177,35 24.6294722,35 C31.9218916,35 35.9118517,28.9598142 35.9118517,23.7176205 C35.9118517,23.5457453 35.9118517,23.3738701 35.8995749,23.2019949 C36.6730133,22.637262 37.3482374,21.9374844 37.8884166,21.1517692 Z" id="twitter---FontAwesome" fill="#5F5F5F"></path>
            </g>
        </g>
    </g>
</svg>