<?xml version="1.0" encoding="UTF-8" standalone="no"?>
<svg width="156px" height="160px" viewBox="0 0 156 160" version="1.1" xmlns="http://www.w3.org/2000/svg" xmlns:xlink="http://www.w3.org/1999/xlink">
    <!-- Generator: Sketch 41.2 (35397) - http://www.bohemiancoding.com/sketch -->
    <title>user research icon</title>
    <desc>Created with Sketch.</desc>
    <defs></defs>
    <g id="Symbols" stroke="none" stroke-width="1" fill="none" fill-rule="evenodd">
        <g id="user-research-icon">
            <g>
                <path d="M117.395612,113.458079 L154.108076,150.170543 C156.278934,152.341401 156.277163,155.86283 154.113971,158.026022 C151.946368,160.193625 148.425429,160.187065 146.258492,158.020127 L109.270266,121.031902 C97.7822478,130.105165 83.2876766,135.517986 67.5330882,135.517986 C30.2355935,135.517986 -1.42108547e-14,105.181251 -1.42108547e-14,67.7589928 C-1.42108547e-14,30.3367344 30.2355935,0 67.5330882,0 C104.830583,0 135.066176,30.3367344 135.066176,67.7589928 C135.066176,85.368535 128.371114,101.409131 117.395612,113.458079 Z M67.3436237,125.346422 C99.1468862,125.346422 124.928524,99.4785419 124.928524,67.5688945 C124.928524,35.6592471 99.1468862,9.79136691 67.3436237,9.79136691 C35.5403613,9.79136691 9.75872305,35.6592471 9.75872305,67.5688945 C9.75872305,99.4785419 35.5403613,125.346422 67.3436237,125.346422 Z" id="Combined-Shape" fill="#B6B6B6"></path>
                <path d="M68.6493376,73.0166411 C72.0065958,73.0166411 75.6886947,73.5056079 79.6957448,74.4835562 C84.2442882,75.6244959 87.9263871,77.1457259 90.742152,79.047292 C94.0994102,81.2748409 95.7780141,83.7740046 95.7780141,86.5448581 L95.7780141,93.3904618 L41.5206612,93.3904618 L41.5206612,86.5448581 C41.5206612,83.7740046 43.1992651,81.2748409 46.5565233,79.047292 C49.3722882,77.1457259 53.0543871,75.6244959 57.6029304,74.4835562 C61.6099805,73.5056079 65.2920794,73.0166411 68.6493376,73.0166411 Z M68.6493376,66.1710374 C66.212618,66.1710374 63.9654547,65.5598289 61.9077803,64.3373935 C59.8501059,63.1149581 58.2121134,61.4714864 56.9937536,59.4069289 C55.7753937,57.3423714 55.166223,55.0876911 55.166223,52.6428204 C55.166223,50.1979497 55.7753937,47.9161046 56.9937536,45.7972167 C58.2121134,43.6783287 59.8501059,42.0076921 61.9077803,40.7852568 C63.9654547,39.5628214 66.212618,38.9516129 68.6493376,38.9516129 C71.0860573,38.9516129 73.3332206,39.5628214 75.390895,40.7852568 C77.4485693,42.0076921 79.0865619,43.6783287 80.3049217,45.7972167 C81.5232815,47.9161046 82.1324523,50.1979497 82.1324523,52.6428204 C82.1324523,55.0876911 81.5232815,57.3423714 80.3049217,59.4069289 C79.0865619,61.4714864 77.4485693,63.1149581 75.390895,64.3373935 C73.3332206,65.5598289 71.0860573,66.1710374 68.6493376,66.1710374 Z" id="person---material" fill="#5983B5"></path>
            </g>
        </g>
    </g>
</svg>