<?xml version="1.0" encoding="UTF-8"?>
<svg width="185px" height="190px" viewBox="0 0 185 190" version="1.1" xmlns="http://www.w3.org/2000/svg" xmlns:xlink="http://www.w3.org/1999/xlink">
    <!-- Generator: Sketch 47.1 (45422) - http://www.bohemiancoding.com/sketch -->
    <title>user-research-icon</title>
    <desc>Created with Sketch.</desc>
    <defs></defs>
    <g id="Page-1" stroke="none" stroke-width="1" fill="none" fill-rule="evenodd">
        <g id="process-icons" transform="translate(-175.000000, -156.000000)">
            <g id="user-research-icon" transform="translate(175.000000, 156.000000)">
                <g>
                    <path d="M139.208992,134.74264 L182.762662,178.296309 C185.337077,180.870725 185.332153,185.049601 182.763363,187.618392 C180.189334,190.19242 176.011046,190.187457 173.441281,187.617691 L129.564142,143.740553 C115.94358,154.505916 98.7618725,160.927608 80.0873162,160.927608 C35.8563128,160.927608 -1.42108547e-14,124.902736 -1.42108547e-14,80.463804 C-1.42108547e-14,36.0248721 35.8563128,0 80.0873162,0 C124.31832,0 160.174632,36.0248721 160.174632,80.463804 C160.174632,101.380578 152.230842,120.433258 139.208992,134.74264 Z M79.8626307,148.848876 C117.578038,148.848876 148.152417,118.130768 148.152417,80.2380622 C148.152417,42.345356 117.578038,11.6272482 79.8626307,11.6272482 C42.1472233,11.6272482 11.5728446,42.345356 11.5728446,80.2380622 C11.5728446,118.130768 42.1472233,148.848876 79.8626307,148.848876 Z" id="Combined-Shape" fill="#B6B6B6"></path>
                    <path d="M81.4110735,86.7072613 C85.3924373,86.7072613 89.759029,87.2879094 94.5109794,88.449223 C99.9050853,89.8040889 104.271677,91.6105496 107.610885,93.8686593 C111.592249,96.5138736 113.582901,99.4816305 113.582901,102.772019 L113.582901,110.901173 L49.2392456,110.901173 L49.2392456,102.772019 C49.2392456,99.4816305 51.2298977,96.5138736 55.2112616,93.8686593 C58.55047,91.6105496 62.9170616,89.8040889 68.3111675,88.449223 C73.0631179,87.2879094 77.4297096,86.7072613 81.4110735,86.7072613 Z M81.4110735,78.5781069 C78.5213739,78.5781069 75.8564687,77.8522968 73.4162779,76.4006548 C70.9760872,74.9490128 69.033596,72.9973901 67.5887462,70.5457281 C66.1438964,68.094066 65.4214824,65.4166332 65.4214824,62.5133492 C65.4214824,59.6100653 66.1438964,56.9003742 67.5887462,54.3841948 C69.033596,51.8680153 70.9760872,49.8841344 73.4162779,48.4324924 C75.8564687,46.9808504 78.5213739,46.2550403 81.4110735,46.2550403 C84.3007731,46.2550403 86.9656783,46.9808504 89.405869,48.4324924 C91.8460598,49.8841344 93.7885509,51.8680153 95.2334007,54.3841948 C96.6782505,56.9003742 97.4006646,59.6100653 97.4006646,62.5133492 C97.4006646,65.4166332 96.6782505,68.094066 95.2334007,70.5457281 C93.7885509,72.9973901 91.8460598,74.9490128 89.405869,76.4006548 C86.9656783,77.8522968 84.3007731,78.5781069 81.4110735,78.5781069 Z" id="person---material" fill="#268CC2"></path>
                </g>
            </g>
        </g>
    </g>
</svg>