<?xml version="1.0" encoding="UTF-8"?>
<svg width="253px" height="190px" viewBox="0 0 253 190" version="1.1" xmlns="http://www.w3.org/2000/svg" xmlns:xlink="http://www.w3.org/1999/xlink">
    <!-- Generator: Sketch 47.1 (45422) - http://www.bohemiancoding.com/sketch -->
    <title>wires-and-prototyping-icon</title>
    <desc>Created with Sketch.</desc>
    <defs></defs>
    <g id="Page-1" stroke="none" stroke-width="1" fill="none" fill-rule="evenodd">
        <g id="process-icons" transform="translate(-500.000000, -156.000000)">
            <g id="wires-and-prototyping-icon" transform="translate(500.000000, 156.000000)">
                <g>
                    <path d="M0,5.00034328 C0,2.23872994 2.24848107,0 4.99759544,0 L225.938451,0 C228.698547,0 230.936047,2.23482506 230.936047,5.00034328 L230.936047,164.379502 C230.936047,167.141115 228.687565,169.379845 225.938451,169.379845 L4.99759544,169.379845 C2.23749969,169.379845 0,167.14502 0,164.379502 L0,5.00034328 Z M8.19891289,11.0724439 L8.19891289,159.920542 C8.19891289,161.588492 9.53774885,162.927279 11.1892867,162.927279 L221.113245,162.927279 C222.753014,162.927279 224.103619,161.581117 224.103619,159.920542 L224.103619,11.0724439 C224.103619,9.40449413 222.764783,8.0657069 221.113245,8.0657069 L11.1892867,8.0657069 C9.54951771,8.0657069 8.19891289,9.4118689 8.19891289,11.0724439 Z" id="computer-outline" fill="#B6B6B6"></path>
                    <rect id="phone-outline" fill="#B6B6B6" x="183.866279" y="78.0620155" width="69.1337209" height="111.937984" rx="5"></rect>
                    <rect id="phone-inner" fill="#F8F8F8" x="189.75" y="83.9534884" width="57.3662791" height="100.155039" rx="3"></rect>
                    <g id="Group-2" transform="translate(20.593023, 19.147287)">
                        <ellipse id="Oval-3" fill="#FF6059" cx="5.23151602" cy="5.15503876" rx="5.23151602" ry="5.15503876"></ellipse>
                        <ellipse id="Oval-3" fill="#FFBE2F" cx="21.3284884" cy="5.15503876" rx="5.23151602" ry="5.15503876"></ellipse>
                        <ellipse id="Oval-3" fill="#28CA42" cx="37.4254607" cy="5.15503876" rx="5.23151602" ry="5.15503876"></ellipse>
                    </g>
                    <rect id="Rectangle-8" fill="#D8D8D8" x="20.5930233" y="47.1317829" width="144.151163" height="7.36434109"></rect>
                    <rect id="Rectangle-8" fill="#D8D8D8" x="20.5930233" y="63.3333333" width="109.915666" height="7.36434109"></rect>
                    <rect id="Rectangle-8" fill="#D8D8D8" x="20.5930233" y="79.5348837" width="125.02907" height="7.36434109"></rect>
                    <rect id="Rectangle-8" fill="#D8D8D8" x="20.5930233" y="111.937984" width="101.494186" height="7.36434109"></rect>
                    <rect id="Rectangle-8" fill="#D8D8D8" x="20.5930233" y="128.139535" width="125.02907" height="7.36434109"></rect>
                    <rect id="Rectangle-8" fill="#D8D8D8" x="195.633721" y="138.449612" width="45.4077465" height="4.41860465"></rect>
                    <rect id="Rectangle-8" fill="#268CC2" x="195.633721" y="94.2635659" width="45.4077465" height="32.4031008" rx="2"></rect>
                    <rect id="Rectangle-8" fill="#D8D8D8" x="195.633721" y="150.232558" width="35.7758003" height="4.41860465"></rect>
                    <rect id="Rectangle-8" fill="#D8D8D8" x="195.633721" y="162.015504" width="42.6557619" height="4.41860465"></rect>
                </g>
            </g>
        </g>
    </g>
</svg>